<?xml version="1.0" encoding="utf-8"?>
<!-- Generator: Adobe Illustrator 19.0.0, SVG Export Plug-In . SVG Version: 6.00 Build 0)  -->
<svg version="1.1" id="Layer_1" xmlns="http://www.w3.org/2000/svg" xmlns:xlink="http://www.w3.org/1999/xlink" x="0px" y="0px"
	 viewBox="0 0 632 252.6" style="enable-background:new 0 0 632 252.6;" xml:space="preserve">
<style type="text/css">
	.st0{clip-path:url(#SVGID_2_);fill:#FFFFFF;}
	.st1{clip-path:url(#SVGID_4_);fill:#FFFFFF;}
	.st2{clip-path:url(#SVGID_6_);fill:#FFFFFF;}
	.st3{clip-path:url(#SVGID_8_);fill:#FFFFFF;}
	.st4{clip-path:url(#SVGID_10_);fill:#FFFFFF;}
	.st5{clip-path:url(#SVGID_12_);fill:#FFFFFF;}
	.st6{clip-path:url(#SVGID_14_);fill:#FFFFFF;}
	.st7{clip-path:url(#SVGID_16_);fill:#FFFFFF;}
	.st8{fill:#FFFFFF;}
	.st9{fill:#141414;}
	.st10{fill:#231F20;}
</style>
<g>
	<defs>
		<path id="SVGID_1_" d="M524.1,116.3c1.1-2.6,2.1-5.3,3-8.2c0.9-2.8,1.8-5.7,2.8-8.6l0.4-1.2l-0.1,0.8c-0.2,1.9-0.5,4.4-0.8,7.5
			c-0.3,3.1-0.5,6.2-0.5,9.2l-1.3,33.5h-17.2L524.1,116.3z M519.3,77.5l-55,121.8h25.9l12.2-30.5h24.9l0,30.5h24.4l0.1-0.9h0.2
			l0.1-120.9H519.3z"/>
	</defs>
	<use xlink:href="#SVGID_1_"  style="overflow:visible;fill:#FFFFFF;"/>
	<clipPath id="SVGID_2_">
		<use xlink:href="#SVGID_1_"  style="overflow:visible;"/>
	</clipPath>
	<path class="st0" d="M524.1,116.3c1.1-2.6,2.1-5.3,3-8.2c0.9-2.8,1.8-5.7,2.8-8.6l0.4-1.2l-0.1,0.8c-0.2,1.9-0.5,4.4-0.8,7.5
		c-0.3,3.1-0.5,6.2-0.5,9.2l-1.3,33.5h-17.2 M519.3,77.5l-55,121.8h25.9l12.2-30.5h24.9l0,30.5h24.4l0.1-0.9h0.2l0.1-120.9H519.3z"
		/>
</g>
<g>
	<defs>
		<polygon id="SVGID_3_" points="538.4,58 525.3,73.4 536.8,73.4 555.7,58 		"/>
	</defs>
	<use xlink:href="#SVGID_3_"  style="overflow:visible;fill:#FFFFFF;"/>
	<clipPath id="SVGID_4_">
		<use xlink:href="#SVGID_3_"  style="overflow:visible;"/>
	</clipPath>
	<polygon class="st1" points="538.4,58 525.3,73.4 536.8,73.4 555.7,58 	"/>
</g>
<g>
	<defs>
		<path id="SVGID_5_" d="M61.1,140.7h8c4.8,0,8.2,0.7,10,2.2c1.8,1.4,2.7,3.7,2.7,7c0,2.5-0.4,5.6-1.1,9.1c-0.7,3.5-1.7,6.5-3,8.8
			c-1.7,3.2-4.1,5.5-6.9,6.7c-3.1,1-6.4,1.6-9.7,1.6h-7.6L61.1,140.7z M71.3,92.4H81c3.4,0,5.8,0.6,7.1,1.8c1.3,1.2,2,2.9,2,5.1
			l-0.6,5.6c-0.8,3.7-1.5,6.2-1.9,7.3c-0.8,2.1-1.8,3.8-3,4.9c-1.6,1.6-3.7,2.7-6.2,3.3c-2.6,0.6-5.4,0.9-8.3,0.9H65L71.3,92.4z
			 M51.1,73.1L25.4,194.9h40.5c8.2,0,15.2-1.8,20.7-5.3c5.5-3.5,10.3-9.2,14.3-17c1.1-2.4,2-4.8,2.7-7.2c0.7-2.4,1.4-5.3,1.9-8.6
			c0.6-3.4,0.9-5.6,1.1-6.6c0.1-1.1,0.2-2.4,0.2-3.9c0-4.9-1.1-8.8-3.3-11.9c-1.7-2.4-4.2-4-7.3-5c5-2.2,9-5.5,11.9-9.8
			c2.4-3.6,4.3-8.6,5.7-15c0.2-1.3,0.5-3,0.8-5c0.3-2.1,0.5-4,0.5-5.8c0-1.7-0.2-3.8-0.7-6c-0.4-2.2-1.1-4.1-2-5.7
			c-2.1-3.8-5.6-6.4-10.4-7.8c-3.2-0.9-7.9-1.3-14-1.3H51.1z"/>
	</defs>
	<use xlink:href="#SVGID_5_"  style="overflow:visible;fill:#FFFFFF;"/>
	<clipPath id="SVGID_6_">
		<use xlink:href="#SVGID_5_"  style="overflow:visible;"/>
	</clipPath>
	<path class="st2" d="M61.1,140.7h8c4.8,0,8.2,0.7,10,2.2c1.8,1.4,2.7,3.7,2.7,7c0,2.5-0.4,5.6-1.1,9.1c-0.7,3.5-1.7,6.5-3,8.8
		c-1.7,3.2-4.1,5.5-6.9,6.7c-3.1,1-6.4,1.6-9.7,1.6h-7.6 M71.3,92.4H81c3.4,0,5.8,0.6,7.1,1.8c1.3,1.2,2,2.9,2,5.1l-0.6,5.6
		c-0.8,3.7-1.5,6.2-1.9,7.3c-0.8,2.1-1.8,3.8-3,4.9c-1.6,1.6-3.7,2.7-6.2,3.3c-2.6,0.6-5.4,0.9-8.3,0.9H65L71.3,92.4z M51.1,73.1
		L25.4,194.9h40.5c8.2,0,15.2-1.8,20.7-5.3c5.5-3.5,10.3-9.2,14.3-17c1.1-2.4,2-4.8,2.7-7.2c0.7-2.4,1.4-5.3,1.9-8.6
		c0.6-3.4,0.9-5.6,1.1-6.6c0.1-1.1,0.2-2.4,0.2-3.9c0-4.9-1.1-8.8-3.3-11.9c-1.7-2.4-4.2-4-7.3-5c5-2.2,9-5.5,11.9-9.8
		c2.4-3.6,4.3-8.6,5.7-15c0.2-1.3,0.5-3,0.8-5c0.3-2.1,0.5-4,0.5-5.8c0-1.7-0.2-3.8-0.7-6c-0.4-2.2-1.1-4.1-2-5.7
		c-2.1-3.8-5.6-6.4-10.4-7.8c-3.2-0.9-7.9-1.3-14-1.3H51.1z"/>
</g>
<g>
	<defs>
		<path id="SVGID_7_" d="M141.4,178.2c-1.5-2-2.2-4.9-2.2-8.8c0-1.5,0.2-3.5,0.6-6.1c0.4-2.6,0.7-4.7,1-6.3l7.1-33.3
			c1.8-8.9,3.6-15.1,5.4-18.5c3.8-7.6,9.3-11.3,16.6-11.3c4.1,0,7,1.4,8.8,4.1c1.5,2.3,2.3,5.6,2.3,9.8c0,1.3-0.2,3.6-0.7,6.7
			c-0.5,3.1-1,6.3-1.5,9.5l-6.7,30.8c-1.6,8-3.5,14-5.8,18c-3.6,6.2-8.7,9.2-15.5,9.2C146.3,182.1,143.3,180.8,141.4,178.2
			 M145.6,81.6c-6.1,4.1-11.2,10.6-15,19.3c-2.6,5.8-5.4,15-8.4,27.4l-3.5,17.3c-1.9,9.1-3,14.2-3.2,15.6c-0.9,5.1-1.3,9.8-1.3,13.8
			c0,8.8,2.4,15.5,7,19.8c5.2,4.8,13.8,7.3,25.6,7.3c11.9,0,21.5-2.5,28.7-7.3c6.3-4.2,11.4-11,15.2-20.1c2.7-6.2,5.4-15.9,8.2-28.7
			l3.5-17.3c1.1-6.1,1.8-11.2,2.3-15c0.4-3.9,0.6-7.7,0.6-11.1c0-9.2-2.2-16-6.5-20.4c-5-5.1-13.4-7.6-25.1-7.6
			C162.1,74.4,152.7,76.9,145.6,81.6"/>
	</defs>
	<use xlink:href="#SVGID_7_"  style="overflow:visible;fill:#FFFFFF;"/>
	<clipPath id="SVGID_8_">
		<use xlink:href="#SVGID_7_"  style="overflow:visible;"/>
	</clipPath>
	<path class="st3" d="M141.4,178.2c-1.5-2-2.2-4.9-2.2-8.8c0-1.5,0.2-3.5,0.6-6.1c0.4-2.6,0.7-4.7,1-6.3l7.1-33.3
		c1.8-8.9,3.6-15.1,5.4-18.5c3.8-7.6,9.3-11.3,16.6-11.3c4.1,0,7,1.4,8.8,4.1c1.5,2.3,2.3,5.6,2.3,9.8c0,1.3-0.2,3.6-0.7,6.7
		c-0.5,3.1-1,6.3-1.5,9.5l-6.7,30.8c-1.6,8-3.5,14-5.8,18c-3.6,6.2-8.7,9.2-15.5,9.2C146.3,182.1,143.3,180.8,141.4,178.2
		 M145.6,81.6c-6.1,4.1-11.2,10.6-15,19.3c-2.6,5.8-5.4,15-8.4,27.4l-3.5,17.3c-1.9,9.1-3,14.2-3.2,15.6c-0.9,5.1-1.3,9.8-1.3,13.8
		c0,8.8,2.4,15.5,7,19.8c5.2,4.8,13.8,7.3,25.6,7.3c11.9,0,21.5-2.5,28.7-7.3c6.3-4.2,11.4-11,15.2-20.1c2.7-6.2,5.4-15.9,8.2-28.7
		l3.5-17.3c1.1-6.1,1.8-11.2,2.3-15c0.4-3.9,0.6-7.7,0.6-11.1c0-9.2-2.2-16-6.5-20.4c-5-5.1-13.4-7.6-25.1-7.6
		C162.1,74.4,152.7,76.9,145.6,81.6"/>
</g>
<g>
	<defs>
		<path id="SVGID_9_" d="M277.3,77.5l-4.9,24c-1.7,8.5-3,15.3-3.9,20.2c-0.8,4.9-1.6,9.5-2.2,13.8l-4,25c-0.3-5.8-0.8-11.5-1.6-17
			c-0.6-4.8-2-12.1-4-21.8l-8.5-44.2h-24.4l-26,121.8h24.1l4.9-23.4c1.6-6.6,3-13.4,4-20.3c0.7-4.6,1.4-9.5,2.2-14.6
			c0.8-5.3,1.8-11.4,2.7-18c0.3-2.2,0.6-4.1,0.9-5.9c0.3,5.6,0.9,11.1,1.7,16.7c0.6,4.1,2.1,11.5,4.2,22l8.5,43.6h24.8l25.7-121.8
			H277.3z"/>
	</defs>
	<use xlink:href="#SVGID_9_"  style="overflow:visible;fill:#FFFFFF;"/>
	<clipPath id="SVGID_10_">
		<use xlink:href="#SVGID_9_"  style="overflow:visible;"/>
	</clipPath>
	<path class="st4" d="M277.3,77.5l-4.9,24c-1.7,8.5-3,15.3-3.9,20.2c-0.8,4.8-1.6,9.5-2.2,13.8l-4,25c-0.3-5.8-0.8-11.5-1.6-17
		c-0.6-4.8-2-12.1-4-21.8l-8.5-44.2h-24.4l-26,121.8h24.1l4.9-23.4c1.6-6.6,3-13.4,4-20.3c0.7-4.6,1.4-9.5,2.2-14.6
		c0.8-5.3,1.8-11.4,2.7-18c0.3-2.2,0.6-4.1,0.9-5.9c0.3,5.6,0.9,11.1,1.7,16.7c0.6,4.1,2.1,11.5,4.2,22l8.5,43.6h24.8l25.7-121.8"/>
</g>
<g>
	<defs>
		<path id="SVGID_11_" d="M326.2,81.6c-6.1,4.1-11.2,10.6-15,19.3c-2.6,5.8-5.4,15-8.4,27.4l-3.5,17.3c-2,9.2-3,14.2-3.2,15.6
			c-0.9,5.1-1.3,9.8-1.3,13.8c0,8.8,2.4,15.5,7,19.8c5.2,4.8,13.8,7.3,25.6,7.3c4.7,0,9.2-1.3,13.4-3.8c3.6-2.2,7-5.4,9.9-9.4
			l-2.2,10.5h18.7l14.1-66.5h-39.2l-4.1,19.3l15.6,0c-1.9,9.3-4.5,16.5-7.9,21.4c-3.9,5.8-8.7,8.6-14.6,8.6c-4.3,0-7.2-1.2-9.1-3.8
			c-1.5-2-2.2-4.9-2.2-8.8c0-1.5,0.2-3.5,0.6-6c0.4-2.6,0.7-4.7,1-6.2l7.1-33.4c1.8-8.9,3.6-15.1,5.4-18.6
			c3.8-7.6,9.3-11.3,16.6-11.3c4.4,0,7.7,1.1,9.7,3.3c1.6,1.8,2.4,4.4,2.4,7.8c0,0.8-0.2,2.5-0.5,4.9c-0.3,2.5-0.6,4.3-0.8,5.5
			l-0.2,1h24.1l1.6-7.9c0.3-2.3,0.5-4.8,0.5-7.3c0-10.1-3.1-17.3-9.2-21.5c-5-3.5-13-5.3-23.7-5.3C342.7,74.4,333.3,76.9,326.2,81.6
			"/>
	</defs>
	<use xlink:href="#SVGID_11_"  style="overflow:visible;fill:#FFFFFF;"/>
	<clipPath id="SVGID_12_">
		<use xlink:href="#SVGID_11_"  style="overflow:visible;"/>
	</clipPath>
	<path class="st5" d="M326.2,81.6c-6.1,4.1-11.2,10.6-15.1,19.3c-2.6,5.8-5.4,15-8.4,27.4l-3.5,17.3c-2,9.2-3,14.2-3.2,15.6
		c-0.9,5.1-1.3,9.8-1.3,13.8c0,8.8,2.4,15.5,7,19.8c5.2,4.8,13.8,7.3,25.6,7.3c4.7,0,9.2-1.3,13.4-3.8c3.6-2.2,7-5.4,9.9-9.4
		l-2.2,10.5h18.7l14.1-66.5h-39.2l-4.1,19.3l15.6,0c-1.9,9.3-4.5,16.4-7.9,21.4c-3.9,5.8-8.7,8.6-14.6,8.6c-4.3,0-7.2-1.2-9.1-3.8
		c-1.5-2-2.2-4.9-2.2-8.8c0-1.5,0.2-3.5,0.6-6c0.4-2.6,0.7-4.7,1-6.2l7.1-33.4c1.8-8.9,3.6-15.1,5.4-18.6
		c3.8-7.6,9.3-11.3,16.6-11.3c4.4,0,7.7,1.1,9.7,3.3c1.6,1.8,2.4,4.4,2.4,7.8c0,0.8-0.2,2.5-0.5,4.9c-0.3,2.5-0.6,4.3-0.8,5.5
		l-0.2,1h24.1l1.6-7.9c0.3-2.3,0.5-4.8,0.5-7.3c0-10.1-3.1-17.3-9.2-21.5c-5-3.5-13-5.3-23.7-5.3C342.7,74.4,333.3,76.9,326.2,81.6"
		/>
</g>
<g>
	<defs>
		<path id="SVGID_13_" d="M428.4,96.8h14.1c3.7,0,6.4,1.1,8.1,3.1c1.7,2.1,2.6,5.5,2.6,10.1c0,5.7-1.2,14.1-3.5,25.1
			c-3.9,18.6-7.5,30.6-10.6,35.6c-3.8,6.1-10.4,9.2-19.7,9.2h-8.6l7-34h13.4l4.3-16.7h-13.8L428.4,96.8z M408.5,77.5l-10.9,51.8H388
			l-3.9,16.7h9.6l-11.2,53.3h42.7c4.3,0,7.9-0.3,10.5-0.9c2.7-0.6,5.1-1.4,7.2-2.4c6.7-3.6,12.3-8.9,16.7-15.8
			c3.5-5.7,6.8-13.2,9.6-22.5c1.5-5.1,3.4-13.2,5.6-24.1c1.3-6.2,2.3-11.8,3.1-16.6c0.7-4.9,1.1-9.2,1.1-12.7c0-5.2-0.7-9.5-2-12.8
			c-2.1-5.2-5.5-9-10.2-11.5c-3.2-1.7-6.8-2.5-10.8-2.5H408.5z"/>
	</defs>
	<use xlink:href="#SVGID_13_"  style="overflow:visible;fill:#FFFFFF;"/>
	<clipPath id="SVGID_14_">
		<use xlink:href="#SVGID_13_"  style="overflow:visible;"/>
	</clipPath>
	<path class="st6" d="M428.4,96.8h14.1c3.7,0,6.4,1.1,8.1,3.1c1.7,2.1,2.6,5.5,2.6,10.1c0,5.7-1.2,14.1-3.5,25.1
		c-3.9,18.6-7.5,30.6-10.6,35.6c-3.8,6.1-10.4,9.2-19.7,9.2h-8.6l7-34h13.4l4.3-16.7h-13.8 M408.5,77.5l-10.9,51.8H388l-3.9,16.7
		h9.6l-11.2,53.3h42.7c4.3,0,7.9-0.3,10.5-0.9c2.7-0.6,5.1-1.4,7.2-2.4c6.7-3.6,12.3-8.9,16.7-15.8c3.5-5.7,6.8-13.2,9.6-22.5
		c1.5-5.1,3.4-13.2,5.6-24.1c1.3-6.2,2.3-11.8,3.1-16.6c0.7-4.9,1.1-9.2,1.1-12.7c0-5.2-0.7-9.5-2-12.8c-2.1-5.2-5.5-9-10.2-11.5
		c-3.2-1.7-6.8-2.5-10.8-2.5H408.5z"/>
</g>
<g>
	<defs>
		<polygon id="SVGID_15_" points="178.6,54.8 165.5,70.1 177,70.1 195.9,54.8 		"/>
	</defs>
	<use xlink:href="#SVGID_15_"  style="overflow:visible;fill:#FFFFFF;"/>
	<clipPath id="SVGID_16_">
		<use xlink:href="#SVGID_15_"  style="overflow:visible;"/>
	</clipPath>
	<polygon class="st7" points="178.6,54.8 165.5,70.1 177,70.1 195.9,54.8 	"/>
</g>
<path class="st8" d="M537.8,206.9H409.4c-7.7,0-13.9,6.2-13.9,13.9v17.8c0,7.7,6.2,13.9,13.9,13.9h128.4c7.7,0,13.9-6.2,13.9-13.9
	v-17.8C551.8,213.2,545.5,206.9,537.8,206.9z M415.4,240.9h-5.2v-5.2h5.2V240.9z M435.5,226.3h-5.1v-2.5c0-1.3-0.6-1.9-1.8-1.9
	c-0.7,0-1.2,0.3-1.5,0.9c-0.3,0.6-0.5,1.9-0.5,4.1v5.3v0.9c0,1.7,0.2,2.9,0.5,3.5c0.3,0.6,0.8,0.9,1.6,0.9c0.7,0,1.1-0.3,1.4-0.9
	c0.1-0.4,0.3-1.1,0.4-2.3v-2h5.1v2c0,2.4-0.5,4.2-1.6,5.4c-1.1,1.3-2.9,1.9-5.4,1.9c-2.3,0-4-0.6-5.1-1.8c-1.3-1.3-1.9-3.3-1.9-6
	v-0.6v-7.3c0-2.9,0.7-5,2-6.3c1.1-1.1,2.8-1.6,4.9-1.6c2.4,0,4.2,0.7,5.4,2c1.1,1.1,1.6,2.6,1.6,4.4V226.3z M453.6,238.9
	c-1.1,1.8-3.1,2.6-6.2,2.6h-0.2h-0.2c-3,0-5-0.8-6.1-2.5c-1-1.5-1.5-4.1-1.5-7.8v-0.7c0-3.3,0.1-5.5,0.3-6.6c0.3-2,1-3.4,2-4.4
	c1.2-1.1,3-1.6,5.5-1.6c2.5,0,4.3,0.5,5.4,1.5c1,0.9,1.7,2.3,2,4.3c0.2,1.3,0.3,3.5,0.3,6.7C455,234.6,454.5,237.3,453.6,238.9z
	 M485.5,240.9h-5.1v-15.1c0-1.2-0.1-2.1-0.4-2.6c-0.4-0.8-1-1.2-2-1.2c-1.1,0-1.8,0.3-2.2,1c-0.4,0.7-0.5,1.8-0.5,3.2v14.7h-5.1
	v-15.3c0-1.2-0.1-2.1-0.3-2.6c-0.4-0.7-1.1-1.1-2.2-1.1c-1.1,0-1.8,0.3-2.1,1c-0.3,0.7-0.5,1.8-0.5,3.2v14.7H460v-22.3h5.1v2.3
	c0.6-1.1,1.4-1.9,2.3-2.3c0.8-0.4,1.6-0.5,2.6-0.5c1.1,0,2.1,0.2,3,0.6c1.1,0.5,1.7,1.3,1.9,2.3c0.5-1,1.2-1.7,2-2.2
	c0.8-0.5,1.8-0.7,3.1-0.7c1.8,0,3.2,0.5,4.1,1.5c0.9,0.9,1.3,2,1.3,3.3V240.9z M497.7,240.9h-5.2v-5.2h5.2V240.9z M514,240.9h-6.4
	l-5.2-22.3h5.5l2.2,12.5c0.2,0.9,0.3,2.1,0.5,3.5c0.1,1.4,0.2,2.4,0.2,3.1c0.1-1.6,0.2-2.6,0.2-2.9c0.2-1.5,0.3-2.7,0.6-3.6
	l2.2-12.5h5.3L514,240.9z M537,240.9h-5.1v-14.8c0-1.3-0.1-2.2-0.4-2.7c-0.3-0.7-0.9-1-1.8-1h-0.2c-0.8,0-1.4,0.4-1.8,1
	c-0.4,0.7-0.6,1.6-0.6,2.7v0.3v14.4h-5.1v-22.3h5.1v2.3c0.5-1.1,1.3-1.9,2.3-2.4c0.7-0.3,1.5-0.5,2.3-0.5c1.5,0,2.7,0.4,3.6,1.3
	c1,1,1.6,2.3,1.6,4.1V240.9z"/>
<path class="st8" d="M447.3,222c-1.2,0-2,0.4-2.3,1.3c-0.2,0.6-0.4,1.5-0.4,3v7.4c0,1.5,0.1,2.5,0.4,2.9c0.4,0.6,1.1,0.9,2.3,0.9
	c1.1,0,1.8-0.3,2.1-0.8c0.3-0.6,0.5-1.6,0.5-3v-7.4c0-1.4-0.1-2.4-0.3-2.9C449.2,222.4,448.4,222,447.3,222z"/>
<path class="st9" d="M529.7,30.3c-0.9-1.1-1.9-2.1-3-3.1C527.8,28.2,528.8,29.2,529.7,30.3"/>
<path d="M572.5,58.2c-7.1-3.5-18.2-8.1-29.4-10c-3.5-4.4-6.8-9.7-10.7-14.7c3.9,5,7.1,10.2,10.7,14.7
	C554.3,50.1,565.4,54.8,572.5,58.2"/>
<path class="st10" d="M557.5,14.1c-6-3.4-12.3-6.2-18.9-8.4c-7.2-2.1-15.2-3.9-23.8-5.1c-3.7-0.4-7.4-0.6-11.2-0.6
	c-9.7,0-19,1.2-27.9,3.5c-2.2,0.6-4.4,1.2-6.6,1.9c-3.2,1.1-6.4,2.3-9.5,3.6c-19.6,8.6-36.1,22.7-47.3,40.3c-0.5,1-0.8,1.6-1,1.9
	c0,0.1-0.1,0.1-0.1,0.1L428,35.6c0,0-0.2,0.5-0.5,1.4c-1,2.6-2.9,8.3-3.1,12.8c6.3-2.6,29.4-5.3,34.2-5.8
	c3.2-12.1,24.2-28.4,24.2-28.4l-3.7-4.7v0c16.8-3.7,32.7-2.1,44.4,0.4l0,0C523.4,11.3,543.1,7.3,557.5,14.1"/>
<path class="st8" d="M610.6,96.9c-1-14.5-5-28.2-11.5-40.5c-1.3-2.4-2.6-4.7-4-6.9c-1.4-2.3-3-4.5-4.6-6.6
	C582,31.6,571.2,22,558.7,14.8c-0.4-0.2-0.8-0.5-1.2-0.7c-14.4-6.8-34.1-2.8-34.1-2.8l0,0c1.5,0.3,2.9,0.6,4.2,1
	c0.7,0.2,1.3,0.3,1.9,0.5c1.3,0.3,2.4,0.7,3.5,1c1.1,0.3,2.1,0.7,3,1c0.4,0.1,0.8,0.3,1.2,0.4c3.4,1.2,5.3,2.1,5.3,2.1s0,0,0,0
	c-0.1,0-0.2,0-0.3,0.1c-0.2,0.1-0.6,0.2-1.1,0.3c-3.8,1-14.1,3.9-19,5.2c-0.2,0.1-0.4,0.1-0.6,0.2c1.9,1.3,3.6,2.7,5.2,4.2
	c1.1,1,2,2,3,3.1c1,1.1,1.9,2.2,2.7,3.3c3.9,5,7.1,10.2,10.7,14.7c11.2,1.9,22.3,6.5,29.4,10c4.9,2.4,7.9,4.2,7.9,4.2
	s0-7.4,0.5-14.7c0.8,0.6,1.8,2.1,3,3.9c5,4,9,9,12.1,14.5c4.5,6.9,11.1,18.2,13.7,28.2C610.1,95.2,610.3,96.1,610.6,96.9"/>
<path class="st8" d="M610.6,96.9c-0.3-0.9-0.6-1.7-0.8-2.6c-2.6-10.1-9.2-21.3-13.7-28.2c-3.2-5.5-7.1-10.5-12.1-14.5
	c3.7,6.2,8.6,17.6,10.5,23.8c3.8,12.6,5.4,30,5.4,30s-9.5-1.6-19.5-4.7c0,0,0,0,0,0.1c-2.6,18.4-16.8,36.7-16.8,36.7l15.2,33.1
	c0,0-1.6,4.7-7.9,13.7c6.2-5.3,15.7-15,23.7-25.9c5.9-9.1,10.3-19.1,13-29.8c0,0.1,0,0.1,0,0.2c0,0.1,0,0.1,0,0.2l0.6-1.9
	c0.4-1.4,0.9-3.4,1.3-5.4c1-4.9,1.2-10.1,1.1-13c0.1-1.6,0.1-3.3,0.1-4.9C610.8,101.4,610.8,99.2,610.6,96.9 M608.1,114.9
	L608.1,114.9C608.1,114.9,608.1,114.9,608.1,114.9C608.1,114.9,608.1,114.9,608.1,114.9 M598.6,70.9c0.2,0.3,0.3,0.6,0.5,0.9
	C598.9,71.4,598.7,71.1,598.6,70.9 M605.3,83.5C605.3,83.5,605.3,83.5,605.3,83.5C605.3,83.5,605.3,83.5,605.3,83.5 M604.6,82
	c0-0.1-0.1-0.1-0.1-0.2C604.6,81.9,604.6,81.9,604.6,82 M603.9,80.5c0-0.1-0.1-0.2-0.1-0.3C603.8,80.3,603.8,80.4,603.9,80.5
	 M603.1,79c-0.1-0.1-0.1-0.2-0.2-0.4C603,78.8,603.1,78.9,603.1,79 M602.4,77.6c-0.1-0.1-0.1-0.3-0.2-0.4
	C602.2,77.3,602.3,77.5,602.4,77.6 M601.7,76.3c-0.1-0.1-0.2-0.3-0.2-0.4C601.5,76,601.6,76.1,601.7,76.3 M601,75
	c-0.1-0.2-0.2-0.3-0.3-0.5C600.8,74.7,600.9,74.8,601,75 M600.3,73.8c-0.1-0.2-0.2-0.4-0.3-0.5C600.1,73.5,600.2,73.6,600.3,73.8
	 M599.7,72.7c-0.1-0.2-0.2-0.4-0.4-0.6C599.4,72.3,599.5,72.5,599.7,72.7 M607.9,126.9c0,0.1,0,0.1,0,0.2c0-0.4,0.1-0.9,0.1-1.3
	C608,126.2,608,126.5,607.9,126.9 M608.2,123c0,0.7-0.1,1.3-0.1,2C608.1,124.3,608.1,123.7,608.2,123L608.2,123z"/>
<polygon class="st10" points="46.7,73.1 45.8,73.1 34,73.1 28.5,73.1 2.9,194.9 19.6,194.9 19.6,194.9 21.3,194.9 21.4,194.7 
	21.4,194.7 "/>
</svg>
