<?xml version="1.0" encoding="iso-8859-1"?>
<!-- Generator: Adobe Illustrator 19.0.0, SVG Export Plug-In . SVG Version: 6.00 Build 0)  -->
<svg xmlns="http://www.w3.org/2000/svg" xmlns:xlink="http://www.w3.org/1999/xlink" version="1.1" id="Layer_1" x="0px" y="0px" viewBox="0 0 512 512" style="enable-background:new 0 0 512 512;" xml:space="preserve" width="512px" height="512px">
<g>
	<g>
		<path d="M66.783,333.919v100.174c0,18.442,14.949,33.391,33.391,33.391s33.391-14.95,33.391-33.391V333.919H66.783z" fill="#acacac"/>
	</g>
</g>
<g>
	<g>
		<path d="M50.087,133.571C22.468,133.571,0,156.039,0,183.658v66.783c0,27.619,22.468,50.087,50.087,50.087h83.478V133.571H50.087z     M66.783,267.136H50.087c-9.206,0-16.696-7.49-16.696-16.696v-66.783c0-9.206,7.49-16.696,16.696-16.696h16.696V267.136z" fill="#acacac"/>
	</g>
</g>
<g>
	<g>
		<polygon points="166.957,133.571 166.957,300.516 378.435,375.058 378.435,59.025   " fill="#acacac"/>
	</g>
</g>
<g>
	<g>
		<path d="M445.217,144.701V61.216c0-11.428-11.256-19.533-22.195-15.766l-11.196,3.408v336.364l11.196,3.408    c10.794,3.762,22.195-4.23,22.195-15.766v-94.598c36.826,0,66.783-29.956,66.783-66.783S482.044,144.701,445.217,144.701z     M445.217,244.814v-66.671c18.237-0.329,33.391,14.93,33.391,33.34S463.445,244.821,445.217,244.814z" fill="#acacac"/>
	</g>
</g>
<g>
</g>
<g>
</g>
<g>
</g>
<g>
</g>
<g>
</g>
<g>
</g>
<g>
</g>
<g>
</g>
<g>
</g>
<g>
</g>
<g>
</g>
<g>
</g>
<g>
</g>
<g>
</g>
<g>
</g>
</svg>
